<svg xmlns="http://www.w3.org/2000/svg" viewBox="0 0 800 600" role="img" aria-label="English to Urdu document translation preview">
  <defs>
    <linearGradient id="bg" x1="0" y1="0" x2="1" y2="1"><stop offset="0" stop-color="#1c2027"/><stop offset="1" stop-color="#101216"/></linearGradient>
    <radialGradient id="g1" cx="0.5" cy="0.5" r="0.5"><stop offset="0" stop-color="#ff6a1a" stop-opacity="0.35"/><stop offset="1" stop-color="#ff6a1a" stop-opacity="0"/></radialGradient>
    <radialGradient id="g2" cx="0.5" cy="0.5" r="0.5"><stop offset="0" stop-color="#2f7bff" stop-opacity="0.4"/><stop offset="1" stop-color="#2f7bff" stop-opacity="0"/></radialGradient>
    <linearGradient id="or" x1="0" y1="0" x2="1" y2="1"><stop offset="0" stop-color="#ff9142"/><stop offset="1" stop-color="#ff5a0a"/></linearGradient>
    <linearGradient id="bl" x1="0" y1="0" x2="1" y2="1"><stop offset="0" stop-color="#5cc8ff"/><stop offset="1" stop-color="#2266ff"/></linearGradient>
  </defs>
  <rect width="800" height="600" fill="url(#bg)"/>
  <circle cx="220" cy="320" r="300" fill="url(#g1)"/><circle cx="600" cy="300" r="300" fill="url(#g2)"/>
  <!-- English page -->
  <g transform="rotate(-4 220 300)">
    <rect x="80" y="90" width="270" height="380" rx="14" fill="#f1eee8"/>
    <rect x="106" y="122" width="120" height="16" rx="8" fill="#2a2e36"/>
    <g fill="#2a2e36" opacity="0.35"><rect x="106" y="160" width="216" height="9" rx="4.5"/><rect x="106" y="182" width="200" height="9" rx="4.5"/><rect x="106" y="204" width="216" height="9" rx="4.5"/><rect x="106" y="226" width="170" height="9" rx="4.5"/><rect x="106" y="262" width="216" height="9" rx="4.5"/><rect x="106" y="284" width="190" height="9" rx="4.5"/><rect x="106" y="306" width="216" height="9" rx="4.5"/><rect x="106" y="328" width="150" height="9" rx="4.5"/><rect x="106" y="364" width="216" height="9" rx="4.5"/><rect x="106" y="386" width="180" height="9" rx="4.5"/></g>
    <rect x="106" y="424" width="70" height="22" rx="11" fill="url(#or)"/>
  </g>
  <!-- arrow -->
  <circle cx="400" cy="300" r="34" fill="#1c2027" stroke="#fff" stroke-opacity="0.14"/>
  <path d="M384 300h32m-10-10 10 10-10 10" fill="none" stroke="#fff" stroke-width="3.5" stroke-linecap="round" stroke-linejoin="round"/>
  <!-- Urdu page -->
  <g transform="rotate(4 580 300)">
    <rect x="450" y="90" width="270" height="380" rx="14" fill="#f1eee8"/>
    <text x="585" y="146" font-family="'Noto Naskh Arabic','Segoe UI',Tahoma,Arial,'DejaVu Sans',sans-serif" font-size="30" font-weight="700" fill="#2a2e36" text-anchor="middle">اردو ترجمہ</text>
    <g fill="#2a2e36" opacity="0.35"><rect x="478" y="170" width="216" height="9" rx="4.5"/><rect x="494" y="192" width="200" height="9" rx="4.5"/><rect x="478" y="214" width="216" height="9" rx="4.5"/><rect x="524" y="236" width="170" height="9" rx="4.5"/><rect x="478" y="272" width="216" height="9" rx="4.5"/><rect x="504" y="294" width="190" height="9" rx="4.5"/><rect x="478" y="316" width="216" height="9" rx="4.5"/><rect x="544" y="338" width="150" height="9" rx="4.5"/><rect x="478" y="374" width="216" height="9" rx="4.5"/><rect x="514" y="396" width="180" height="9" rx="4.5"/></g>
    <rect x="618" y="424" width="76" height="22" rx="11" fill="url(#bl)"/>
  </g>
</svg>
